<?xml version="1.0" encoding="utf-8"?>
<?xml-stylesheet type="text/xsl" href="rss1.xsl"?>
<rss version="2.0" xmlns:atom="http://www.w3.org/2005/Atom" xmlns:content="http://purl.org/rss/1.0/modules/content/" xmlns:dc="http://purl.org/dc/elements/1.1/" xmlns:media="http://search.yahoo.com/mrss/">
<channel>
 <title>Getty</title>
 <link>http://www.gettyimg.com/</link>
 <atom:link href="http://www.gettyimg.com/" rel="self" type="application/rss+xml" />

 
                <item>
                <title><![CDATA[【Cinema Center】SERIES - HBO Original : The Idol (2023) [MKV | Dolby Vision + HDR10 | E-AC3-JOC 5.1 English]]]></title>
                <link><![CDATA[https://sharemania.us/threads/hbo-original-the-idol-2023-mkv-dolby-vision-hdr10-e-ac3-joc-5-1-english.222105/]]></link>
                <description><![CDATA[<article>
<blockquote class="messageText SelectQuoteContainer ugc baseHtml">
<img src="https://fr.web.img5.acsta.net/pictures/23/05/10/10/26/3481577.jpg" class="bbCodeImage LbImage" alt="[​IMG]" data-url="https://fr.web.img5.acsta.net/pictures/23/05/10/10/26/3481577.jpg" style=""> <br>
<br>
<b>Synopsis:<br>
After a nervous breakdown, Jocelyn is determined to recover his most popular pop star title. Tedros, a nightclub owner and leader of a cult, revives the flame in her. However, this romance is dangerous for Jocelyn</b>.<br>
<br>
<span style="color: #ff4d4d"><b>The.Idol.S01.Warner.DV.HDR.2160p.WEBRip.DDP.5.1.Atmos.H.264-SonMaxime</b></span><br>
<br>
<div class="ToggleTriggerAnchor bbCodeSpoilerContainer">
<button type="button" class="button bbCodeSpoilerButton ToggleTrigger Tooltip JsOnly" data-target="> .SpoilerTarget"><span>Spoiler: <span class="SpoilerTitle">MediaInfo</span></span></button>
<div class="SpoilerTarget bbCodeSpoilerText">
<div class="bbCodeBlock bbCodeCode">
<div class="type">Code:</div>
<pre>General
Unique ID                                : 95281064771898711868625541852835425533 (0x47AE77301A23E1F1C8A0F92891D52CFD)
Complete name                            : The.Idol.S01E01.Pop.Tarts.&amp;.Rat.Tales.Warner.DV.HDR.2160p.WEBRip.DDP.5.1.Atmos.H.264-SonMaxime.mkv
Format                                   : Matroska
Format version                           : Version 4
File size                                : 8.40 GiB
Duration                                 : 54 min 28 s
Overall bit rate                         : 22.1 Mb/s
Frame rate                               : 23.976 FPS
Encoded date                             : 2023-06-05 19:35:13 UTC
Writing application                      : mkvmerge v76.0 ('Celebration') 64-bit
Writing library                          : libebml v1.4.4 + libmatroska v1.7.1

Video
ID                                       : 1
Format                                   : HEVC
Format/Info                              : High Efficiency Video Coding
Format profile                           : Main 10@L5.1@Main
HDR format                               : Dolby Vision, Version 1.0, dvhe.08.06, BL+RPU, HDR10 compatible / SMPTE ST 2086, HDR10 compatible
Codec ID                                 : V_MPEGH/ISO/HEVC
Duration                                 : 54 min 28 s
Bit rate                                 : 21.4 Mb/s
Width                                    : 3 840 pixels
Height                                   : 1 920 pixels
Display aspect ratio                     : 2.000
Frame rate mode                          : Constant
Frame rate                               : 23.976 (24000/1001) FPS
Color space                              : YUV
Chroma subsampling                       : 4:2:0 (Type 0)
Bit depth                                : 10 bits
Bits/(Pixel*Frame)                       : 0.121
Stream size                              : 8.15 GiB (97%)
Writing library                          : x265 3.5+1-f0c1022b6:[Linux][GCC 10.2.1][64 bit] 10bit
Encoding settings                        : cpuid=1111039 / frame-threads=5 / wpp / no-pmode / no-pme / psnr / ssim / log-level=2 / input-csp=1 / input-res=3840x1920 / interlace=0 / total-frames=0 / level-idc=0 / high-tier=0 / uhd-bd=0 / ref=3 / no-allow-non-conformance / repeat-headers / annexb / aud / no-eob / no-eos / hrd / info / hash=0 / no-temporal-layers / no-open-gop / min-keyint=96 / keyint=96 / gop-lookahead=0 / bframes=4 / b-adapt=2 / b-pyramid / bframe-bias=0 / rc-lookahead=96 / lookahead-slices=8 / scenecut=40 / no-hist-scenecut / radl=0 / no-splice / no-intra-refresh / ctu=64 / min-cu-size=8 / no-rect / no-amp / max-tu-size=32 / tu-inter-depth=1 / tu-intra-depth=1 / limit-tu=0 / rdoq-level=0 / dynamic-rd=0.00 / no-ssim-rd / signhide / no-tskip / nr-intra=0 / nr-inter=0 / no-constrained-intra / strong-intra-smoothing / max-merge=3 / limit-refs=1 / no-limit-modes / me=1 / subme=2 / merange=57 / temporal-mvp / no-frame-dup / no-hme / weightp / weightb / no-analyze-src-pics / deblock=0:0 / no-sao / no-sao-non-deblock / rd=3 / selective-sao=0 / early-skip / rskip / no-fast-intra / no-tskip-fast / no-cu-lossless / b-intra / no-splitrd-skip / rdpenalty=0 / psy-rd=2.00 / psy-rdoq=0.00 / no-rd-refine / no-lossless / cbqpoffs=0 / crqpoffs=0 / rc=crf / crf=10.0 / qcomp=0.60 / qpstep=4 / stats-write=0 / stats-read=0 / vbv-maxrate=21900 / vbv-bufsize=40000 / vbv-init=0.9 / min-vbv-fullness=50.0 / max-vbv-fullness=80.0 / crf-max=0.0 / crf-min=0.0 / ipratio=1.40 / pbratio=1.30 / aq-mode=2 / aq-strength=1.00 / cutree / zone-count=0 / no-strict-cbr / qg-size=32 / no-rc-grain / qpmax=69 / qpmin=0 / no-const-vbv / sar=1 / overscan=0 / videoformat=5 / range=0 / colorprim=9 / transfer=16 / colormatrix=9 / chromaloc=1 / chromaloc-top=0 / chromaloc-bottom=0 / display-window=0 / master-display=G(8500,39850)B(6550,2300)R(35400,14600)WP(15635,16450)L(10000000,1) / cll=156,120 / min-luma=0 / max-luma=1023 / log2-max-poc-lsb=8 / vui-timing-info / vui-hrd-info / slices=1 / no-opt-qp-pps / no-opt-ref-list-length-pps / no-multi-pass-opt-rps / scenecut-bias=0.05 / hist-threshold=0.03 / no-opt-cu-delta-qp / no-aq-motion / hdr10 / hdr10-opt / no-dhdr10-opt / no-idr-recovery-sei / analysis-reuse-level=0 / analysis-save-reuse-level=0 / analysis-load-reuse-level=0 / scale-factor=0 / refine-intra=0 / refine-inter=0 / refine-mv=1 / refine-ctu-distortion=0 / no-limit-sao / ctu-info=0 / no-lowpass-dct / refine-analysis-type=0 / copy-pic=1 / max-ausize-factor=1.0 / no-dynamic-refine / no-single-sei / no-hevc-aq / no-svt / no-field / qp-adaptation-range=1.00 / scenecut-aware-qp=0conformance-window-offsets / right=0 / bottom=0 / decoder-max-rate=0 / no-vbv-live-multi-pass
Default                                  : Yes
Forced                                   : No
Color range                              : Limited
Color primaries                          : BT.2020
Transfer characteristics                 : PQ
Matrix coefficients                      : BT.2020 non-constant
Mastering display color primaries        : BT.2020
Mastering display luminance              : min: 0.0001 cd/m2, max: 1000 cd/m2
Maximum Content Light Level              : 156 cd/m2
Maximum Frame-Average Light Level        : 120 cd/m2

Audio
ID                                       : 2
Format                                   : E-AC-3 JOC
Format/Info                              : Enhanced AC-3 with Joint Object Coding
Commercial name                          : Dolby Digital Plus with Dolby Atmos
Codec ID                                 : A_EAC3
Duration                                 : 54 min 28 s
Bit rate mode                            : Constant
Bit rate                                 : 640 kb/s
Channel(s)                               : 6 channels
Channel layout                           : L R C LFE Ls Rs
Sampling rate                            : 48.0 kHz
Frame rate                               : 31.250 FPS (1536 SPF)
Compression mode                         : Lossy
Stream size                              : 249 MiB (3%)
Language                                 : English (US)
Service kind                             : Complete Main
Default                                  : Yes
Forced                                   : No
Complexity index                         : 16
Number of dynamic objects                : 15
Bed channel count                        : 1 channel
Bed channel configuration                : LFE

Text #1
ID                                       : 3
Format                                   : UTF-8
Codec ID                                 : S_TEXT/UTF8
Codec ID/Info                            : UTF-8 Plain Text
Duration                                 : 53 min 10 s
Bit rate                                 : 76 b/s
Frame rate                               : 0.285 FPS
Count of elements                        : 910
Stream size                              : 29.7 KiB (0%)
Title                                    : English (United States)
Language                                 : English
Default                                  : No
Forced                                   : No

Text #2
ID                                       : 4
Format                                   : UTF-8
Codec ID                                 : S_TEXT/UTF8
Codec ID/Info                            : UTF-8 Plain Text
Duration                                 : 54 min 16 s
Bit rate                                 : 88 b/s
Frame rate                               : 0.332 FPS
Count of elements                        : 1081
Stream size                              : 35.2 KiB (0%)
Title                                    : English (United States) (SDH)
Language                                 : English
Default                                  : No
Forced                                   : No

Text #3
ID                                       : 5
Format                                   : UTF-8
Codec ID                                 : S_TEXT/UTF8
Codec ID/Info                            : UTF-8 Plain Text
Duration                                 : 54 min 17 s
Bit rate                                 : 91 b/s
Frame rate                               : 0.231 FPS
Count of elements                        : 754
Stream size                              : 36.5 KiB (0%)
Title                                    : Bulgarian (Bulgaria)
Language                                 : Bulgarian
Default                                  : No
Forced                                   : No

Text #4
ID                                       : 6
Format                                   : UTF-8
Codec ID                                 : S_TEXT/UTF8
Codec ID/Info                            : UTF-8 Plain Text
Duration                                 : 54 min 17 s
Bit rate                                 : 60 b/s
Frame rate                               : 0.231 FPS
Count of elements                        : 752
Stream size                              : 23.9 KiB (0%)
Title                                    : Czech (Czechia)
Language                                 : Czech
Default                                  : No
Forced                                   : No

Text #5
ID                                       : 7
Format                                   : UTF-8
Codec ID                                 : S_TEXT/UTF8
Codec ID/Info                            : UTF-8 Plain Text
Duration                                 : 54 min 17 s
Bit rate                                 : 56 b/s
Frame rate                               : 0.207 FPS
Count of elements                        : 675
Stream size                              : 22.6 KiB (0%)
Title                                    : Danish (Denmark)
Language                                 : Danish
Default                                  : No
Forced                                   : No

Text #6
ID                                       : 8
Format                                   : UTF-8
Codec ID                                 : S_TEXT/UTF8
Codec ID/Info                            : UTF-8 Plain Text
Duration                                 : 52 min 42 s
Bit rate                                 : 62 b/s
Frame rate                               : 0.238 FPS
Count of elements                        : 752
Stream size                              : 24.0 KiB (0%)
Title                                    : Spanish (Latin America)
Language                                 : Spanish
Default                                  : No
Forced                                   : No

Text #7
ID                                       : 9
Format                                   : UTF-8
Codec ID                                 : S_TEXT/UTF8
Codec ID/Info                            : UTF-8 Plain Text
Duration                                 : 52 min 42 s
Bit rate                                 : 68 b/s
Frame rate                               : 0.246 FPS
Count of elements                        : 778
Stream size                              : 26.3 KiB (0%)
Title                                    : Spanish (Spain)
Language                                 : Spanish
Default                                  : No
Forced                                   : No

Text #8
ID                                       : 10
Format                                   : UTF-8
Codec ID                                 : S_TEXT/UTF8
Codec ID/Info                            : UTF-8 Plain Text
Duration                                 : 54 min 17 s
Bit rate                                 : 57 b/s
Frame rate                               : 0.231 FPS
Count of elements                        : 753
Stream size                              : 23.0 KiB (0%)
Title                                    : Estonian (Estonia)
Language                                 : Estonian
Default                                  : No
Forced                                   : No

Text #9
ID                                       : 11
Format                                   : UTF-8
Codec ID                                 : S_TEXT/UTF8
Codec ID/Info                            : UTF-8 Plain Text
Duration                                 : 54 min 17 s
Bit rate                                 : 55 b/s
Frame rate                               : 0.199 FPS
Count of elements                        : 648
Stream size                              : 22.2 KiB (0%)
Title                                    : Finnish (Finland)
Language                                 : Finnish
Default                                  : No
Forced                                   : No

Text #10
ID                                       : 12
Format                                   : UTF-8
Codec ID                                 : S_TEXT/UTF8
Codec ID/Info                            : UTF-8 Plain Text
Duration                                 : 54 min 16 s
Bit rate                                 : 57 b/s
Frame rate                               : 0.228 FPS
Count of elements                        : 742
Stream size                              : 22.8 KiB (0%)
Title                                    : Croatian (Croatia)
Language                                 : Croatian
Default                                  : No
Forced                                   : No

Text #11
ID                                       : 13
Format                                   : UTF-8
Codec ID                                 : S_TEXT/UTF8
Codec ID/Info                            : UTF-8 Plain Text
Duration                                 : 54 min 17 s
Bit rate                                 : 61 b/s
Frame rate                               : 0.231 FPS
Count of elements                        : 754
Stream size                              : 24.6 KiB (0%)
Title                                    : Hungarian (Hungary)
Language                                 : Hungarian
Default                                  : No
Forced                                   : No

Text #12
ID                                       : 14
Format                                   : UTF-8
Codec ID                                 : S_TEXT/UTF8
Codec ID/Info                            : UTF-8 Plain Text
Duration                                 : 54 min 17 s
Bit rate                                 : 66 b/s
Frame rate                               : 0.231 FPS
Count of elements                        : 753
Stream size                              : 26.3 KiB (0%)
Title                                    : Lithuanian (Lithuania)
Language                                 : Lithuanian
Default                                  : No
Forced                                   : No

Text #13
ID                                       : 15
Format                                   : UTF-8
Codec ID                                 : S_TEXT/UTF8
Codec ID/Info                            : UTF-8 Plain Text
Duration                                 : 54 min 17 s
Bit rate                                 : 60 b/s
Frame rate                               : 0.231 FPS
Count of elements                        : 753
Stream size                              : 24.2 KiB (0%)
Title                                    : Latvian (Latvia)
Language                                 : Latvian
Default                                  : No
Forced                                   : No

Text #14
ID                                       : 16
Format                                   : UTF-8
Codec ID                                 : S_TEXT/UTF8
Codec ID/Info                            : UTF-8 Plain Text
Duration                                 : 54 min 17 s
Bit rate                                 : 93 b/s
Frame rate                               : 0.231 FPS
Count of elements                        : 754
Stream size                              : 37.4 KiB (0%)
Title                                    : Macedonian (North Macedonia)
Language                                 : Macedonian
Default                                  : No
Forced                                   : No

Text #15
ID                                       : 17
Format                                   : UTF-8
Codec ID                                 : S_TEXT/UTF8
Codec ID/Info                            : UTF-8 Plain Text
Duration                                 : 54 min 17 s
Bit rate                                 : 58 b/s
Frame rate                               : 0.179 FPS
Count of elements                        : 583
Stream size                              : 23.4 KiB (0%)
Title                                    : Dutch (Netherlands)
Language                                 : Dutch
Default                                  : No
Forced                                   : No

Text #16
ID                                       : 18
Format                                   : UTF-8
Codec ID                                 : S_TEXT/UTF8
Codec ID/Info                            : UTF-8 Plain Text
Duration                                 : 54 min 17 s
Bit rate                                 : 57 b/s
Frame rate                               : 0.224 FPS
Count of elements                        : 731
Stream size                              : 22.9 KiB (0%)
Title                                    : Norwegian (Norway)
Language                                 : Norwegian
Default                                  : No
Forced                                   : No

Text #17
ID                                       : 19
Format                                   : UTF-8
Codec ID                                 : S_TEXT/UTF8
Codec ID/Info                            : UTF-8 Plain Text
Duration                                 : 54 min 17 s
Bit rate                                 : 51 b/s
Frame rate                               : 0.219 FPS
Count of elements                        : 714
Stream size                              : 20.3 KiB (0%)
Title                                    : Polish (Poland)
Language                                 : Polish
Default                                  : No
Forced                                   : No

Text #18
ID                                       : 20
Format                                   : UTF-8
Codec ID                                 : S_TEXT/UTF8
Codec ID/Info                            : UTF-8 Plain Text
Duration                                 : 52 min 42 s
Bit rate                                 : 64 b/s
Frame rate                               : 0.238 FPS
Count of elements                        : 752
Stream size                              : 24.9 KiB (0%)
Title                                    : Portuguese (Brazil)
Language                                 : Portuguese
Default                                  : No
Forced                                   : No

Text #19
ID                                       : 21
Format                                   : UTF-8
Codec ID                                 : S_TEXT/UTF8
Codec ID/Info                            : UTF-8 Plain Text
Duration                                 : 54 min 17 s
Bit rate                                 : 66 b/s
Frame rate                               : 0.230 FPS
Count of elements                        : 750
Stream size                              : 26.5 KiB (0%)
Title                                    : Portuguese (Portugal)
Language                                 : Portuguese
Default                                  : No
Forced                                   : No

Text #20
ID                                       : 22
Format                                   : UTF-8
Codec ID                                 : S_TEXT/UTF8
Codec ID/Info                            : UTF-8 Plain Text
Duration                                 : 52 min 42 s
Bit rate                                 : 69 b/s
Frame rate                               : 0.235 FPS
Count of elements                        : 742
Stream size                              : 26.9 KiB (0%)
Title                                    : Romanian (Romania)
Language                                 : Romanian
Default                                  : No
Forced                                   : No

Text #21
ID                                       : 23
Format                                   : UTF-8
Codec ID                                 : S_TEXT/UTF8
Codec ID/Info                            : UTF-8 Plain Text
Duration                                 : 54 min 17 s
Bit rate                                 : 100 b/s
Frame rate                               : 0.232 FPS
Count of elements                        : 755
Stream size                              : 39.9 KiB (0%)
Title                                    : Russian (Russia)
Language                                 : Russian
Default                                  : No
Forced                                   : No

Text #22
ID                                       : 24
Format                                   : UTF-8
Codec ID                                 : S_TEXT/UTF8
Codec ID/Info                            : UTF-8 Plain Text
Duration                                 : 54 min 17 s
Bit rate                                 : 64 b/s
Frame rate                               : 0.231 FPS
Count of elements                        : 753
Stream size                              : 25.6 KiB (0%)
Title                                    : Slovak (Slovakia)
Language                                 : Slovak
Default                                  : No
Forced                                   : No

Text #23
ID                                       : 25
Format                                   : UTF-8
Codec ID                                 : S_TEXT/UTF8
Codec ID/Info                            : UTF-8 Plain Text
Duration                                 : 54 min 17 s
Bit rate                                 : 49 b/s
Frame rate                               : 0.208 FPS
Count of elements                        : 678
Stream size                              : 19.7 KiB (0%)
Title                                    : Slovenian (Slovenia)
Language                                 : Slovenian
Default                                  : No
Forced                                   : No

Text #24
ID                                       : 26
Format                                   : UTF-8
Codec ID                                 : S_TEXT/UTF8
Codec ID/Info                            : UTF-8 Plain Text
Duration                                 : 54 min 17 s
Bit rate                                 : 59 b/s
Frame rate                               : 0.231 FPS
Count of elements                        : 754
Stream size                              : 23.7 KiB (0%)
Title                                    : Serbian (Latin, Serbia)
Language                                 : Serbian
Default                                  : No
Forced                                   : No

Text #25
ID                                       : 27
Format                                   : UTF-8
Codec ID                                 : S_TEXT/UTF8
Codec ID/Info                            : UTF-8 Plain Text
Duration                                 : 54 min 17 s
Bit rate                                 : 62 b/s
Frame rate                               : 0.210 FPS
Count of elements                        : 685
Stream size                              : 24.9 KiB (0%)
Title                                    : Swedish (Sweden)
Language                                 : Swedish
Default                                  : No
Forced                                   : No

Text #26
ID                                       : 28
Format                                   : UTF-8
Codec ID                                 : S_TEXT/UTF8
Codec ID/Info                            : UTF-8 Plain Text
Duration                                 : 54 min 16 s
Bit rate                                 : 77 b/s
Frame rate                               : 0.324 FPS
Count of elements                        : 1054
Stream size                              : 30.9 KiB (0%)
Title                                    : Spanish (Latin America) (SDH)
Language                                 : Spanish
Default                                  : No
Forced                                   : No</pre>
</div></div>
</div><br>
<div class="bbCodeBlock bbCodeVfcHH HiddenContent">
<div class="attribution type">Hidden Content:</div>
<blockquote>You must reply before you can see the hidden data contained here.</blockquote>
</div>
<div class="messageTextEndMarker">&nbsp;</div>
</blockquote>
</article>]]></description>
                <author><![CDATA[SonMaxime]]></author>
                </item>

                </channel></rss>